<?xml version="1.0" encoding="UTF-8"?>
<svg id="Layer_1" data-name="Layer 1" xmlns="http://www.w3.org/2000/svg" viewBox="0 0 82.087 65.405">
  <path d="M.033,50.336L20.283,1.024c.255-.62.858-1.024,1.528-1.024h2.505c.664,0,1.262.402,1.513,1.017l25.197,61.791c.182.446-.409.797-.714.424l-11.155-13.678c-.798-.979-1.442-2.074-1.91-3.247L21.742,7.412h2.495l-13.595,33.957c-.724,1.809-1.93,3.385-3.486,4.558l-6.496,4.895c-.334.252-.787-.098-.628-.485ZM10.381,37.2v-5.68h25.286l-1.347,1.52-23.939,4.16Z" fill="#e8e8de"/>
  <path d="M58.03,64.393L33.072,2.309c-.161-.401.37-.714.643-.379l10.482,12.881c1.357,1.667,2.445,3.536,3.226,5.538l14.685,37.642h-2.564l12.024-30.555c1.02-2.592,2.823-4.802,5.157-6.322l4.726-3.077c.336-.219.754.125.604.497l-18.488,45.826c-.255.631-.867,1.044-1.547,1.044h-2.494c-.659,0-1.252-.401-1.497-1.012Z" fill="#e8e8de"/>
</svg>